<svg width="20" height="20" fill="none" xmlns="http://www.w3.org/2000/svg"><path d="M10 10c-.526 0-1.052-.093-1.463-.28l-5.78-2.636c-.265-.12-.882-.473-.882-1.137 0-.665.617-1.016.882-1.138L8.588 2.15c.804-.367 2.016-.367 2.82 0l5.835 2.66c.265.12.882.472.882 1.137s-.617 1.016-.882 1.137L11.462 9.72c-.41.187-.936.28-1.462.28Z" fill="#AEB5C4"/><path d="m17.24 8.86-.589-.266-1.514.693-3.672 1.68c-.41.187-.938.28-1.463.28-.525 0-1.052-.093-1.461-.28l-3.675-1.68-1.515-.693-.594.267c-.265.12-.882.475-.882 1.139s.617 1.019.881 1.14l5.782 2.641c.407.188.934.281 1.462.281.528 0 1.052-.093 1.463-.28l5.776-2.641c.266-.121.886-.473.886-1.141s-.616-1.018-.884-1.14Z" fill="#AEB5C4"/><path d="m17.24 12.922-.589-.266-1.514.693-3.672 1.678c-.41.186-.938.28-1.463.28-.525 0-1.052-.093-1.461-.28l-3.675-1.68-1.515-.69-.594.266c-.265.121-.882.475-.882 1.14 0 .664.617 1.018.881 1.138l5.782 2.64c.407.187.936.284 1.462.284.526 0 1.05-.097 1.46-.284l5.778-2.64c.267-.12.887-.472.887-1.139 0-.666-.616-1.018-.884-1.14Z" fill="#AEB5C4"/></svg>