<svg width="1920" height="1080" fill="none" xmlns="http://www.w3.org/2000/svg"><g clip-path="url(#a)"><path fill="url(#b)" d="M0 0h1920v1080H0z"/><path d="M-111.061 192.13a573.172 573.172 0 0 1 731.093 814.99 573.155 573.155 0 0 1-482.761 279.03 573.226 573.226 0 0 1-279.925-67.88l62.474-116.6a440.857 440.857 0 0 0 215.323 52.21 440.801 440.801 0 0 0 213.531-59.11A440.894 440.894 0 0 0-55.878 312.35l-55.183-120.22ZM2296.2 363.222a573.174 573.174 0 0 1-217.5 188.842 573.142 573.142 0 0 1-281.88 59.205 573.235 573.235 0 0 1-275.1-85.384 573.17 573.17 0 0 1-198.82-208.41 573.112 573.112 0 0 1-72.35-278.804 573.188 573.188 0 0 1 72.4-278.79 573.136 573.136 0 0 1 198.87-208.372 573.167 573.167 0 0 1 275.11-85.33l6.18 132.135a440.952 440.952 0 0 0-211.62 65.638 440.946 440.946 0 0 0-152.97 160.282 440.896 440.896 0 0 0-.04 428.91 440.997 440.997 0 0 0 152.94 160.312 440.916 440.916 0 0 0 211.61 65.678 440.89 440.89 0 0 0 384.13-190.801l109.04 74.889Z" fill="#14B8A6" fill-opacity=".07"/></g><defs><linearGradient id="b" x1="960" y1="0" x2="960" y2="1080" gradientUnits="userSpaceOnUse"><stop stop-color="#0C4A87"/><stop offset="1" stop-color="#031221"/></linearGradient><clipPath id="a"><path fill="#fff" d="M0 0h1920v1080H0z"/></clipPath></defs></svg>